<svg width="26" height="26" viewBox="0 0 26 26" fill="none" xmlns="http://www.w3.org/2000/svg">
<path fill-rule="evenodd" clip-rule="evenodd" d="M12.75 25.75C19.6536 25.75 25.25 20.1536 25.25 13.25C25.25 6.34644 19.6536 0.75 12.75 0.75C5.84644 0.75 0.25 6.34644 0.25 13.25C0.25 20.1536 5.84644 25.75 12.75 25.75ZM9.55962 20.4289L11.4657 20.982C11.6657 21.0413 11.8719 20.9257 11.9313 20.7257L16.1966 6.03313C16.2529 5.83315 16.1404 5.62379 15.9404 5.56754L14.0343 5.01446C13.8343 4.95822 13.6249 5.07071 13.5687 5.27069L9.30339 19.9633C9.24715 20.1633 9.35964 20.3726 9.55962 20.4289ZM9.26277 16.0261L7.9035 17.476C7.76289 17.6291 7.52541 17.6353 7.37229 17.4916L2.86952 13.2701C2.71016 13.1232 2.71016 12.8701 2.86952 12.7232L7.37229 8.50481C7.52541 8.36108 7.76289 8.37045 7.9035 8.52044L9.26277 9.97033C9.40964 10.1234 9.39714 10.3672 9.23777 10.5078L6.40675 12.9982L9.23777 15.4886C9.39714 15.6293 9.40651 15.873 9.26277 16.0261ZM22.6305 13.2732L18.1277 17.4947C17.9746 17.6354 17.7371 17.6291 17.5965 17.476L16.2372 16.0261C16.0904 15.873 16.1029 15.6293 16.2622 15.4886L19.0933 12.9982L16.2622 10.5047C16.1029 10.364 16.0935 10.1203 16.2372 9.9672L17.5965 8.51731C17.7402 8.36732 17.9777 8.36108 18.1277 8.50169L22.6305 12.7264C22.7898 12.8732 22.7898 13.1263 22.6305 13.2732Z" fill="#FF3855"/>
</svg>
