<svg width="26" height="26" viewBox="0 0 26 26" fill="none" xmlns="http://www.w3.org/2000/svg">
<circle cx="12.75" cy="13.25" r="12.5" fill="#FF0000"/>
<path d="M11.4657 20.982L9.55962 20.4289C9.35964 20.3726 9.24715 20.1633 9.30339 19.9633L13.5687 5.27069C13.6249 5.07071 13.8343 4.95822 14.0343 5.01446L15.9404 5.56754C16.1404 5.62379 16.2529 5.83315 16.1966 6.03313L11.9313 20.7257C11.8719 20.9257 11.6657 21.0413 11.4657 20.982ZM7.9035 17.476L9.26277 16.0261C9.40651 15.873 9.39714 15.6293 9.23777 15.4886L6.40675 12.9982L9.23777 10.5078C9.39714 10.3672 9.40964 10.1234 9.26277 9.97033L7.9035 8.52044C7.76289 8.37045 7.52541 8.36108 7.37229 8.50481L2.86952 12.7232C2.71016 12.8701 2.71016 13.1232 2.86952 13.2701L7.37229 17.4916C7.52541 17.6354 7.76289 17.6291 7.9035 17.476ZM18.1277 17.4947L22.6305 13.2732C22.7898 13.1263 22.7898 12.8732 22.6305 12.7264L18.1277 8.50169C17.9777 8.36108 17.7402 8.36732 17.5965 8.51731L16.2372 9.9672C16.0935 10.1203 16.1029 10.364 16.2622 10.5047L19.0933 12.9982L16.2622 15.4886C16.1029 15.6293 16.0904 15.873 16.2372 16.0261L17.5965 17.476C17.7371 17.6291 17.9746 17.6354 18.1277 17.4947Z" fill="black"/>
</svg>
