<svg width="240" height="30" viewBox="0 0 240 30" fill="none" xmlns="http://www.w3.org/2000/svg">
<circle cx="38.75" cy="16.25" r="7.5" fill="#FF0000"/>
<path d="M5.448 23V8.432H9.384V23H5.448ZM0.528 8.912V5.48H14.328V8.912H0.528ZM16.5879 23V5.48H20.4279V15.584H19.8519C19.8519 14.256 20.0199 13.136 20.3559 12.224C20.6919 11.312 21.1879 10.624 21.8439 10.16C22.4999 9.68 23.3239 9.44 24.3159 9.44H24.4839C25.9399 9.44 27.0519 9.96 27.8199 11C28.5879 12.024 28.9719 13.528 28.9719 15.512V23H25.1319V15.272C25.1319 14.552 24.9159 13.976 24.4839 13.544C24.0679 13.096 23.5159 12.872 22.8279 12.872C22.1079 12.872 21.5239 13.104 21.0759 13.568C20.6439 14.032 20.4279 14.648 20.4279 15.416V23H16.5879ZM48.5801 23V9.848H51.6281V15.512H51.4121C51.4121 14.168 51.5801 13.048 51.9161 12.152C52.2521 11.256 52.7561 10.584 53.4281 10.136C54.1001 9.672 54.9241 9.44 55.9001 9.44H56.0681C57.0601 9.44 57.8841 9.672 58.5401 10.136C59.2121 10.584 59.7161 11.256 60.0521 12.152C60.4041 13.048 60.5801 14.168 60.5801 15.512H59.6441C59.6441 14.168 59.8121 13.048 60.1481 12.152C60.5001 11.256 61.0121 10.584 61.6841 10.136C62.3561 9.672 63.1801 9.44 64.1561 9.44H64.3241C65.3161 9.44 66.1481 9.672 66.8201 10.136C67.5081 10.584 68.0281 11.256 68.3801 12.152C68.7321 13.048 68.9081 14.168 68.9081 15.512V23H65.0681V15.296C65.0681 14.576 64.8761 13.992 64.4921 13.544C64.1241 13.096 63.5961 12.872 62.9081 12.872C62.2201 12.872 61.6761 13.104 61.2761 13.568C60.8761 14.016 60.6761 14.616 60.6761 15.368V23H56.8121V15.296C56.8121 14.576 56.6201 13.992 56.2361 13.544C55.8681 13.096 55.3481 12.872 54.6761 12.872C53.9721 12.872 53.4201 13.104 53.0201 13.568C52.6201 14.016 52.4201 14.616 52.4201 15.368V23H48.5801ZM80.1257 23V19.112H79.4777V14.888C79.4777 14.216 79.3177 13.712 78.9977 13.376C78.6777 13.04 78.1657 12.872 77.4617 12.872C77.1097 12.872 76.6457 12.88 76.0697 12.896C75.4937 12.912 74.9017 12.936 74.2937 12.968C73.6857 13 73.1337 13.032 72.6377 13.064V9.824C73.0057 9.792 73.4377 9.76 73.9337 9.728C74.4297 9.696 74.9417 9.672 75.4697 9.656C75.9977 9.64 76.4937 9.632 76.9577 9.632C78.3017 9.632 79.4297 9.824 80.3417 10.208C81.2697 10.592 81.9737 11.176 82.4537 11.96C82.9337 12.728 83.1737 13.72 83.1737 14.936V23H80.1257ZM75.9257 23.336C74.9817 23.336 74.1497 23.168 73.4297 22.832C72.7257 22.496 72.1737 22.016 71.7737 21.392C71.3737 20.752 71.1737 19.992 71.1737 19.112C71.1737 18.152 71.4217 17.368 71.9177 16.76C72.4137 16.136 73.1097 15.68 74.0057 15.392C74.9017 15.088 75.9337 14.936 77.1017 14.936H79.9097V17.072H77.0777C76.4057 17.072 75.8857 17.24 75.5177 17.576C75.1657 17.896 74.9897 18.336 74.9897 18.896C74.9897 19.424 75.1657 19.856 75.5177 20.192C75.8857 20.512 76.4057 20.672 77.0777 20.672C77.5097 20.672 77.8937 20.6 78.2297 20.456C78.5817 20.296 78.8697 20.032 79.0937 19.664C79.3177 19.296 79.4457 18.784 79.4777 18.128L80.3897 19.088C80.3097 20 80.0857 20.768 79.7177 21.392C79.3657 22.016 78.8697 22.496 78.2297 22.832C77.6057 23.168 76.8377 23.336 75.9257 23.336ZM91.4237 23.408C89.5517 23.408 88.0877 23.024 87.0317 22.256C85.9757 21.488 85.4157 20.408 85.3517 19.016H88.7597C88.8237 19.432 89.0717 19.808 89.5037 20.144C89.9517 20.464 90.6157 20.624 91.4957 20.624C92.1677 20.624 92.7197 20.512 93.1517 20.288C93.5997 20.048 93.8237 19.712 93.8237 19.28C93.8237 18.896 93.6557 18.592 93.3197 18.368C92.9837 18.128 92.3837 17.96 91.5197 17.864L90.4877 17.768C88.9037 17.608 87.7117 17.168 86.9117 16.448C86.1277 15.728 85.7357 14.808 85.7357 13.688C85.7357 12.76 85.9677 11.984 86.4317 11.36C86.8957 10.736 87.5357 10.264 88.3517 9.944C89.1837 9.624 90.1277 9.464 91.1837 9.464C92.8797 9.464 94.2477 9.84 95.2877 10.592C96.3277 11.328 96.8717 12.4 96.9197 13.808H93.5117C93.4477 13.376 93.2237 13.016 92.8397 12.728C92.4557 12.424 91.8877 12.272 91.1357 12.272C90.5437 12.272 90.0717 12.384 89.7197 12.608C89.3677 12.832 89.1917 13.136 89.1917 13.52C89.1917 13.888 89.3437 14.168 89.6477 14.36C89.9517 14.552 90.4477 14.688 91.1357 14.768L92.1677 14.864C93.7837 15.04 95.0397 15.488 95.9357 16.208C96.8317 16.928 97.2797 17.896 97.2797 19.112C97.2797 19.992 97.0397 20.76 96.5597 21.416C96.0797 22.056 95.3997 22.552 94.5197 22.904C93.6397 23.24 92.6077 23.408 91.4237 23.408ZM116.351 23V5.48H120.287V23H116.351ZM105.023 23V5.48H108.959V23H105.023ZM108.263 15.92V12.464H117.047V15.92H108.263ZM131.946 23V19.112H131.298V14.888C131.298 14.216 131.138 13.712 130.818 13.376C130.498 13.04 129.986 12.872 129.282 12.872C128.93 12.872 128.466 12.88 127.89 12.896C127.314 12.912 126.722 12.936 126.114 12.968C125.506 13 124.954 13.032 124.458 13.064V9.824C124.826 9.792 125.258 9.76 125.754 9.728C126.25 9.696 126.762 9.672 127.29 9.656C127.818 9.64 128.314 9.632 128.778 9.632C130.122 9.632 131.25 9.824 132.162 10.208C133.09 10.592 133.794 11.176 134.274 11.96C134.754 12.728 134.994 13.72 134.994 14.936V23H131.946ZM127.746 23.336C126.802 23.336 125.97 23.168 125.25 22.832C124.546 22.496 123.994 22.016 123.594 21.392C123.194 20.752 122.994 19.992 122.994 19.112C122.994 18.152 123.242 17.368 123.738 16.76C124.234 16.136 124.93 15.68 125.826 15.392C126.722 15.088 127.754 14.936 128.922 14.936H131.73V17.072H128.898C128.226 17.072 127.706 17.24 127.338 17.576C126.986 17.896 126.81 18.336 126.81 18.896C126.81 19.424 126.986 19.856 127.338 20.192C127.706 20.512 128.226 20.672 128.898 20.672C129.33 20.672 129.714 20.6 130.05 20.456C130.402 20.296 130.69 20.032 130.914 19.664C131.138 19.296 131.266 18.784 131.298 18.128L132.21 19.088C132.13 20 131.906 20.768 131.538 21.392C131.186 22.016 130.69 22.496 130.05 22.832C129.426 23.168 128.658 23.336 127.746 23.336ZM138.252 23V9.848H141.3V15.488H141.228C141.228 13.632 141.62 12.2 142.404 11.192C143.204 10.184 144.356 9.68 145.86 9.68H146.364V12.992H145.404C144.348 12.992 143.532 13.28 142.956 13.856C142.38 14.416 142.092 15.232 142.092 16.304V23H138.252ZM148.354 23V9.848H151.402V15.488H151.33C151.33 13.632 151.722 12.2 152.506 11.192C153.306 10.184 154.458 9.68 155.962 9.68H156.466V12.992H155.506C154.45 12.992 153.634 13.28 153.058 13.856C152.482 14.416 152.194 15.232 152.194 16.304V23H148.354ZM159.079 23V9.848H162.919V23H159.079ZM157.327 12.68V9.848H162.919V12.68H157.327ZM160.567 8.552C159.847 8.552 159.311 8.368 158.959 8C158.623 7.616 158.455 7.136 158.455 6.56C158.455 5.968 158.623 5.488 158.959 5.12C159.311 4.736 159.847 4.544 160.567 4.544C161.287 4.544 161.815 4.736 162.151 5.12C162.503 5.488 162.679 5.968 162.679 6.56C162.679 7.136 162.503 7.616 162.151 8C161.815 8.368 161.287 8.552 160.567 8.552ZM166.471 23V9.848H169.519V15.488H169.303C169.303 14.144 169.471 13.024 169.807 12.128C170.159 11.232 170.687 10.56 171.391 10.112C172.095 9.664 172.951 9.44 173.959 9.44H174.127C175.663 9.44 176.831 9.944 177.631 10.952C178.447 11.944 178.855 13.456 178.855 15.488V23H175.015V15.272C175.015 14.568 174.807 13.992 174.391 13.544C173.975 13.096 173.415 12.872 172.711 12.872C171.991 12.872 171.407 13.104 170.959 13.568C170.527 14.016 170.311 14.608 170.311 15.344V23H166.471ZM187.311 28.232C186.671 28.232 186.015 28.208 185.343 28.16C184.671 28.112 184.055 28.048 183.495 27.968V24.728C184.055 24.808 184.671 24.872 185.343 24.92C186.031 24.984 186.655 25.016 187.215 25.016C188.255 25.016 189.095 24.896 189.735 24.656C190.391 24.416 190.871 24.048 191.175 23.552C191.479 23.072 191.631 22.448 191.631 21.68V19.064L192.327 17.528C192.295 18.696 192.063 19.696 191.631 20.528C191.215 21.36 190.631 22 189.879 22.448C189.127 22.88 188.231 23.096 187.191 23.096C186.295 23.096 185.479 22.936 184.743 22.616C184.023 22.28 183.407 21.816 182.895 21.224C182.383 20.632 181.991 19.944 181.719 19.16C181.447 18.36 181.311 17.496 181.311 16.568V16.016C181.311 15.088 181.455 14.224 181.743 13.424C182.031 12.624 182.447 11.928 182.991 11.336C183.535 10.744 184.183 10.288 184.935 9.968C185.687 9.632 186.519 9.464 187.431 9.464C188.487 9.464 189.399 9.696 190.167 10.16C190.951 10.624 191.567 11.304 192.015 12.2C192.463 13.096 192.703 14.176 192.735 15.44L192.207 15.584V9.848H195.255V21.44C195.255 23.056 194.967 24.36 194.391 25.352C193.815 26.344 192.935 27.072 191.751 27.536C190.583 28 189.103 28.232 187.311 28.232ZM188.391 19.856C188.983 19.856 189.519 19.728 189.999 19.472C190.479 19.2 190.855 18.816 191.127 18.32C191.415 17.824 191.559 17.224 191.559 16.52V15.824C191.559 15.136 191.407 14.56 191.103 14.096C190.815 13.616 190.431 13.256 189.951 13.016C189.471 12.76 188.959 12.632 188.415 12.632C187.775 12.632 187.207 12.784 186.711 13.088C186.215 13.392 185.831 13.816 185.559 14.36C185.287 14.904 185.151 15.544 185.151 16.28C185.151 17.032 185.287 17.68 185.559 18.224C185.847 18.752 186.231 19.16 186.711 19.448C187.207 19.72 187.767 19.856 188.391 19.856ZM204.556 23.168C203.228 23.168 202.156 23.008 201.34 22.688C200.524 22.352 199.924 21.8 199.54 21.032C199.172 20.248 198.988 19.192 198.988 17.864V6.296H202.564V18.008C202.564 18.632 202.724 19.112 203.044 19.448C203.38 19.768 203.852 19.928 204.46 19.928H206.404V23.168H204.556ZM196.996 12.656V9.848H206.404V12.656H196.996ZM215.348 23.456C214.196 23.456 213.172 23.28 212.276 22.928C211.38 22.56 210.62 22.064 209.996 21.44C209.388 20.816 208.924 20.104 208.604 19.304C208.284 18.488 208.124 17.632 208.124 16.736V16.184C208.124 15.272 208.284 14.408 208.604 13.592C208.94 12.76 209.42 12.032 210.044 11.408C210.684 10.784 211.452 10.296 212.348 9.944C213.244 9.576 214.244 9.392 215.348 9.392C216.484 9.392 217.492 9.576 218.372 9.944C219.268 10.296 220.028 10.784 220.652 11.408C221.276 12.032 221.756 12.76 222.092 13.592C222.428 14.408 222.596 15.272 222.596 16.184V16.736C222.596 17.632 222.436 18.488 222.116 19.304C221.796 20.104 221.324 20.816 220.7 21.44C220.092 22.064 219.34 22.56 218.444 22.928C217.548 23.28 216.516 23.456 215.348 23.456ZM215.348 20.216C216.1 20.216 216.724 20.056 217.22 19.736C217.716 19.416 218.092 18.968 218.348 18.392C218.62 17.816 218.756 17.176 218.756 16.472C218.756 15.72 218.62 15.064 218.348 14.504C218.076 13.928 217.684 13.472 217.172 13.136C216.676 12.8 216.068 12.632 215.348 12.632C214.644 12.632 214.036 12.8 213.523 13.136C213.012 13.472 212.62 13.928 212.348 14.504C212.092 15.064 211.964 15.72 211.964 16.472C211.964 17.176 212.092 17.816 212.348 18.392C212.604 18.968 212.988 19.416 213.5 19.736C214.012 20.056 214.628 20.216 215.348 20.216ZM225.275 23V9.848H228.323V15.488H228.107C228.107 14.144 228.275 13.024 228.611 12.128C228.963 11.232 229.491 10.56 230.195 10.112C230.899 9.664 231.755 9.44 232.763 9.44H232.931C234.467 9.44 235.635 9.944 236.435 10.952C237.251 11.944 237.659 13.456 237.659 15.488V23H233.819V15.272C233.819 14.568 233.611 13.992 233.195 13.544C232.779 13.096 232.219 12.872 231.515 12.872C230.795 12.872 230.211 13.104 229.763 13.568C229.331 14.016 229.115 14.608 229.115 15.344V23H225.275Z" fill="black"/>
<path d="M38.6522 23.456C37.5002 23.456 36.4762 23.28 35.5802 22.928C34.6842 22.56 33.9242 22.064 33.3002 21.44C32.6922 20.816 32.2282 20.104 31.9082 19.304C31.5882 18.488 31.4282 17.632 31.4282 16.736V16.184C31.4282 15.272 31.5882 14.408 31.9082 13.592C32.2442 12.76 32.7242 12.032 33.3482 11.408C33.9882 10.784 34.7562 10.296 35.6522 9.944C36.5482 9.576 37.5482 9.392 38.6522 9.392C39.7882 9.392 40.7962 9.576 41.6762 9.944C42.5722 10.296 43.3322 10.784 43.9562 11.408C44.5802 12.032 45.0602 12.76 45.3962 13.592C45.7322 14.408 45.9002 15.272 45.9002 16.184V16.736C45.9002 17.632 45.7402 18.488 45.4202 19.304C45.1002 20.104 44.6282 20.816 44.0042 21.44C43.3962 22.064 42.6442 22.56 41.7482 22.928C40.8522 23.28 39.8202 23.456 38.6522 23.456ZM38.6522 20.216C39.4042 20.216 40.0282 20.056 40.5242 19.736C41.0202 19.416 41.3962 18.968 41.6522 18.392C41.9242 17.816 42.0602 17.176 42.0602 16.472C42.0602 15.72 41.9242 15.064 41.6522 14.504C41.3802 13.928 40.9882 13.472 40.4762 13.136C39.9802 12.8 39.3722 12.632 38.6522 12.632C37.9482 12.632 37.3402 12.8 36.8282 13.136C36.3162 13.472 35.9242 13.928 35.6522 14.504C35.3962 15.064 35.2682 15.72 35.2682 16.472C35.2682 17.176 35.3962 17.816 35.6522 18.392C35.9082 18.968 36.2922 19.416 36.8042 19.736C37.3162 20.056 37.9322 20.216 38.6522 20.216Z" fill="#FF0000"/>
</svg>
